HIERARCHY
ROOT Hips
{
	OFFSET 0.000000 0.000000 0.000000
	CHANNELS 6 Xposition Yposition Zposition Xrotation Yrotation Zrotation
	JOINT LeftUpLeg_virtual
	{
		OFFSET 0.000000 0.000000 0.000000
		CHANNELS 3 Xrotation Yrotation Zrotation
		JOINT LeftUpLeg
		{
			OFFSET 15.427100 -6.655098 0.678600
			CHANNELS 3 Xrotation Yrotation Zrotation
			JOINT LeftLeg
			{
				OFFSET 4.081073 -39.591068 13.024000
				CHANNELS 3 Xrotation Yrotation Zrotation
				JOINT LeftFoot
				{
					OFFSET -4.081074 -37.707932 -15.979700
					CHANNELS 3 Xrotation Yrotation Zrotation
					JOINT LeftToeBase
					{
						OFFSET 5.346399 -15.068900 20.645000
						CHANNELS 3 Xrotation Yrotation Zrotation
						JOINT LeftToe_End
						{
							OFFSET 2.754700 0.931300 11.300900
							CHANNELS 3 Xrotation Yrotation Zrotation
							End Site
							{
								OFFSET 0 0 0
							}
						}
					}
				}
			}
		}
	}
	JOINT RightUpLeg_virtual
	{
		OFFSET 0.000000 0.000000 0.000000
		CHANNELS 3 Xrotation Yrotation Zrotation
		JOINT RightUpLeg
		{
			OFFSET -15.569500 -6.655098 0.678600
			CHANNELS 3 Xrotation Yrotation Zrotation
			JOINT RightLeg
			{
				OFFSET -4.081825 -39.591045 13.023800
				CHANNELS 3 Xrotation Yrotation Zrotation
				JOINT RightFoot
				{
					OFFSET 4.081824 -37.707954 -15.979600
					CHANNELS 3 Xrotation Yrotation Zrotation
					JOINT RightToeBase
					{
						OFFSET -5.346400 -15.068900 20.645000
						CHANNELS 3 Xrotation Yrotation Zrotation
						JOINT RightToe_End
						{
							OFFSET -2.754700 0.931300 11.300900
							CHANNELS 3 Xrotation Yrotation Zrotation
							End Site
							{
								OFFSET 0 0 0
							}
						}
					}
				}
			}
		}
	}
	JOINT Spine_virtual
	{
		OFFSET 0.000000 0.000000 0.000000
		CHANNELS 3 Xrotation Yrotation Zrotation
		JOINT Spine
		{
			OFFSET -0.279200 12.230698 -2.892100
			CHANNELS 3 Xrotation Yrotation Zrotation
			JOINT Spine1
			{
				OFFSET -0.232667 10.192268 -1.242267
				CHANNELS 3 Xrotation Yrotation Zrotation
				JOINT Spine1_split
				{
					OFFSET -0.232667 10.192268 -1.242267
					CHANNELS 3 Xrotation Yrotation Zrotation
					JOINT Spine2
					{
						OFFSET -0.232667 10.192268 -1.242267
						CHANNELS 3 Xrotation Yrotation Zrotation
						JOINT Neck_virtual
						{
							OFFSET 0.000000 0.000000 0.000000
							CHANNELS 3 Xrotation Yrotation Zrotation
							JOINT Neck
							{
								OFFSET -0.418800 17.814194 8.416900
								CHANNELS 3 Xrotation Yrotation Zrotation
								JOINT Head
								{
									OFFSET 0.000000 7.031097 3.806800
									CHANNELS 3 Xrotation Yrotation Zrotation
									JOINT HeadTop_End
									{
										OFFSET 0.000000 24.646606 12.978600
										CHANNELS 3 Xrotation Yrotation Zrotation
										End Site
										{
											OFFSET 0 0 0
										}
									}
								}
							}
						}
						JOINT LeftShoulder_virtual
						{
							OFFSET 0.000000 0.000000 0.000000
							CHANNELS 3 Xrotation Yrotation Zrotation
							JOINT LeftShoulder
							{
								OFFSET 8.476499 7.247704 -3.868750
								CHANNELS 3 Xrotation Yrotation Zrotation
								JOINT LeftShoulder_split
								{
									OFFSET 8.476499 7.247704 -3.868750
									CHANNELS 3 Xrotation Yrotation Zrotation
									JOINT LeftArm
									{
										OFFSET 9.308998 -2.777710 0.208600
										CHANNELS 3 Xrotation Yrotation Zrotation
										JOINT LeftForeArm
										{
											OFFSET 29.972298 0.000000 0.000000
											CHANNELS 3 Xrotation Yrotation Zrotation
											JOINT LeftHand
											{
												OFFSET 26.026505 0.000000 0.000000
												CHANNELS 3 Xrotation Yrotation Zrotation
												End Site
												{
													OFFSET 0 0 0
												}
											}
										}
									}
								}
							}
						}
						JOINT RightShoulder_virtual
						{
							OFFSET 0.000000 0.000000 0.000000
							CHANNELS 3 Xrotation Yrotation Zrotation
							JOINT RightShoulder
							{
								OFFSET -7.570500 7.247704 -3.868750
								CHANNELS 3 Xrotation Yrotation Zrotation
								JOINT RightShoulder_split
								{
									OFFSET -7.570500 7.247704 -3.868750
									CHANNELS 3 Xrotation Yrotation Zrotation
									JOINT RightArm
									{
										OFFSET -9.308998 -2.777710 0.208500
										CHANNELS 3 Xrotation Yrotation Zrotation
										JOINT RightForeArm
										{
											OFFSET -29.972300 0.000000 0.000000
											CHANNELS 3 Xrotation Yrotation Zrotation
											JOINT RightHand
											{
												OFFSET -26.026505 0.000000 0.000000
												CHANNELS 3 Xrotation Yrotation Zrotation
												End Site
												{
													OFFSET 0 0 0
												}
											}
										}
									}
								}
							}
						}
					}
				}
			}
		}
	}
}
MOTION
Frames: 5
Frame Time: 0.03333333
-0.353762 83.352287 7.195499 0.000000 0.000000 0.000000 -15.129224 -1.518257 -5.078106 -29.883669 23.508277 8.561334 39.823476 -7.193474 10.813688 -0.328649 -7.634210 0.502259 -2.601761 0.113709 -1.171382 0.000000 0.000000 0.000000 -14.677534 -0.898557 -5.128704 -18.101282 -31.513660 2.115772 34.822794 8.283091 -11.391617 0.476078 8.887668 -6.343993 -2.365927 0.286514 -0.125616 0.000000 0.000000 0.000000 -14.860272 -2.176033 -5.722994 5.243487 -1.422728 2.817986 13.442866 -0.868963 -0.190079 0.475713 2.468728 -0.428658 0.000000 0.000000 0.000000 11.894009 -0.324397 -0.360226 11.191781 1.039322 1.371844 -1.543675 1.457893 3.455563 0.000000 0.000000 0.000000 12.273039 -0.172050 -0.461026 0.772617 7.177221 -10.121316 -2.047331 -2.572536 -0.515919 82.208157 -69.352648 10.924476 0.119561 -25.186206 1.268916 0.000000 0.000000 0.000000 12.372138 -0.381218 -0.470818 1.534940 -1.297235 10.820188 5.924679 0.368563 -2.307492 6.166911 35.258960 58.512680 -0.944561 27.613668 0.435958 0.000000 0.000000 0.000000 
-0.327200 83.359329 7.201897 0.000000 0.000000 0.000000 -15.136544 -1.569244 -5.047810 -29.862724 23.617059 8.548696 39.815201 -7.186037 10.805850 -0.342568 -7.647671 0.525708 -2.595881 0.110999 -1.161542 0.000000 0.000000 0.000000 -14.686669 -0.950212 -5.097298 -18.139586 -31.394527 2.123775 34.833449 8.252415 -11.427432 0.475340 8.847825 -6.338093 -2.314100 0.278312 -0.111310 0.000000 0.000000 0.000000 -14.862328 -2.223782 -5.690903 5.241090 -1.411550 2.807044 13.439701 -0.852925 -0.187287 0.472672 2.458421 -0.424696 0.000000 0.000000 0.000000 11.890814 -0.309553 -0.359397 11.215223 1.040474 1.342205 -1.567057 1.464063 3.457852 0.000000 0.000000 0.000000 12.269240 -0.159934 -0.457123 0.772309 7.188590 -10.174076 -2.050779 -2.537393 -0.523184 82.057012 -69.269033 10.856356 0.120184 -25.265990 1.266295 0.000000 0.000000 0.000000 12.362705 -0.366920 -0.465923 1.532863 -1.294633 10.800120 5.902421 0.370126 -2.307738 6.168839 35.268115 58.482163 -0.949508 27.573451 0.439841 0.000000 0.000000 0.000000 
-0.307039 83.360893 7.209667 0.000000 0.000000 0.000000 -15.140327 -1.613166 -5.012795 -29.839959 23.721151 8.532516 39.807316 -7.176904 10.799547 -0.365154 -7.659556 0.559538 -2.586526 0.108304 -1.156992 0.000000 0.000000 0.000000 -14.694447 -0.992142 -5.061852 -18.197200 -31.281607 2.116611 34.870732 8.228262 -11.464811 0.481197 8.830071 -6.327604 -2.275328 0.275736 -0.097708 0.000000 0.000000 0.000000 -14.863511 -2.260116 -5.655841 5.236311 -1.405053 2.787991 13.437591 -0.841261 -0.185020 0.473990 2.449986 -0.421548 0.000000 0.000000 0.000000 11.890121 -0.298668 -0.358580 11.248083 1.041283 1.313259 -1.590946 1.454096 3.488792 0.000000 0.000000 0.000000 12.268826 -0.152063 -0.453454 0.772506 7.196678 -10.220590 -2.048719 -2.509915 -0.530622 81.773053 -69.173178 10.662642 0.122603 -25.369759 1.263320 0.000000 0.000000 0.000000 12.355148 -0.356979 -0.461344 1.532188 -1.282471 10.805173 5.884150 0.383629 -2.313700 6.211460 35.265226 58.402318 -0.950019 27.579769 0.443386 0.000000 0.000000 0.000000 
-0.295846 83.353447 7.219707 0.000000 0.000000 0.000000 -15.141184 -1.644409 -4.975231 -29.821009 23.807838 8.514973 39.809338 -7.171902 10.798276 -0.392705 -7.672375 0.595126 -2.578826 0.106058 -1.158570 0.000000 0.000000 0.000000 -14.700920 -1.018867 -5.025114 -18.270208 -31.186627 2.091297 34.938931 8.215644 -11.501430 0.485113 8.842416 -6.310475 -2.250518 0.278974 -0.087437 0.000000 0.000000 0.000000 -14.864069 -2.280666 -5.619484 5.228433 -1.403140 2.761619 13.435279 -0.835109 -0.183465 0.474623 2.444127 -0.419862 0.000000 0.000000 0.000000 11.889595 -0.293016 -0.357711 11.292671 1.041201 1.290421 -1.611553 1.426601 3.551382 0.000000 0.000000 0.000000 12.270145 -0.149276 -0.450166 0.773547 7.202660 -10.255390 -2.039699 -2.495058 -0.535150 81.400869 -69.072235 10.375461 0.126874 -25.491432 1.258876 0.000000 0.000000 0.000000 12.348904 -0.352279 -0.457219 1.532345 -1.262700 10.833531 5.872884 0.410280 -2.328626 6.290137 35.250258 58.290986 -0.945942 27.629276 0.445598 0.000000 0.000000 0.000000 
-0.294410 83.339218 7.231895 0.000000 0.000000 0.000000 -15.138595 -1.656832 -4.938114 -29.810579 23.866737 8.497454 39.822632 -7.174409 10.803098 -0.419473 -7.687032 0.622843 -2.573146 0.104654 -1.165860 0.000000 0.000000 0.000000 -14.703391 -1.030354 -4.989638 -18.347423 -31.115002 2.050109 35.028963 8.212766 -11.532599 0.479609 8.881537 -6.287721 -2.235977 0.286730 -0.080938 0.000000 0.000000 0.000000 -14.862989 -2.286117 -5.585374 5.218010 -1.404251 2.730325 13.431641 -0.834081 -0.182536 0.477172 2.441205 -0.418902 0.000000 0.000000 0.000000 11.886961 -0.292387 -0.356609 11.349216 1.040866 1.277971 -1.626322 1.385772 3.642228 0.000000 0.000000 0.000000 12.270128 -0.150920 -0.447371 0.775301 7.206520 -10.275873 -2.022708 -2.493654 -0.537340 80.989699 -68.974071 10.034393 0.132011 -25.623892 1.252925 0.000000 0.000000 0.000000 12.342262 -0.352703 -0.453689 1.532973 -1.237462 10.883581 5.870390 0.444914 -2.350814 6.395495 35.222206 58.162592 -0.937510 27.710723 0.446610 0.000000 0.000000 0.000000 
